#!OML:ASF F:\VICON\USERDATA\INSTALL\rory3\rory3.ASF
:FULLY-SPECIFIED
:DEGREES
90
root 0.15188780571474986 17.740777418787935 39.333132313907235 -3.1268223015076257 -5.03298021840617 -3.0635607020248052
lfemur -20.446055748497756 -3.3665760444876747 -17.65310596288071
ltibia 21.005305691843375
lfoot -1.5698029648035252 -4.329690475168309
ltoes -9.823610282848223
rfemur 6.479651269531409 4.413818095897759 27.110387066042247
rtibia 45.16631352046086
rfoot -0.8068104508193121 -5.8209033990131
rtoes 8.428942835280392
lowerback 8.96165261741199 2.8009717240475216 3.160987274061018
upperback 0.3526125949911889 4.207752855191734 0.7140718892000265
thorax -4.485134596357632 2.0736251136873802 -1.7013590750629959
lowerneck -16.017224324053267 -2.9267794538241025 -1.714973062241627
upperneck 20.37519259190839 -3.8096272417665102 1.0170719249524585
head 9.134900242881917 -1.8049999300320398 0.03324479519187194
lclavicle -1.9566580619086092e-15 9.044734741598056e-16
lhumerus -35.48393763368675 1.2936071495055446 81.22992841684541
lradius 32.86661872097867
lwrist 7.510557113440736
lhand -27.2145118738822 22.480886698091908
lfingers 7.12502
lthumb -0.6128562389845927 52.38694120540227
rclavicle -1.953769662942959e-15 9.062835536314298e-16
rhumerus -28.40627864297544 -16.554683752153313 -79.49443063911959
rradius 24.212045739181395
rwrist 4.456713774501016
rhand -17.792526628958605 22.782949235909953
rfingers 7.12502
rthumb 8.48119217644583 -7.200756121675828
91
root 0.23829405226149877 17.802887437269636 40.07740858352157 -3.602357550087869 -6.443882015364126 -2.1666212159784095
lfemur -18.026695812524192 -2.828189916952176 -19.46568176473878
ltibia 22.241825400647443
lfoot -2.535762482829974 -4.940923463251809
ltoes -10.616793088509144
rfemur 0.4043793342213995 4.378336862651643 24.963246273499205
rtibia 55.19565790233636
rfoot 2.1767442015501217 -6.4060962201854545
rtoes 8.19646773442802
lowerback 9.312496275500518 2.971112786015104 2.263831527880689
upperback 0.35126559185990114 4.248055613263595 0.47780775053835445
thorax -4.688321075685305 2.0942308463770685 -1.51859734901418
lowerneck -16.007045163642875 -2.8793649945818505 -1.797784595488447
upperneck 20.423902779351145 -3.7368062596241574 1.0602726783286442
head 9.153799400533261 -1.7734167869498374 0.05727701040468233
lclavicle -1.9567121141497494e-15 9.045829488715894e-16
lhumerus -34.62622551708645 1.526151205783684 81.36530791014646
lradius 32.75077457624014
lwrist 7.713752906323119
lhand -27.245191585331867 22.615504413703725
lfingers 7.12502
lthumb -0.6423438010351544 52.44672268406112
rclavicle -1.9540727370999573e-15 9.060043623007356e-16
rhumerus -28.505522658324633 -16.392264365236457 -79.39872355048712
rradius 23.89355218346909
rwrist 4.725938608433628
rhand -17.672305249100848 22.35651253840195
rfingers 7.12502
rthumb 8.648770077120679 -7.587118799348951
92
root 0.2948064018852004 17.85953203594452 40.62449653605654 -3.6918831513358072 -7.051115688153441 -0.40455842671550957
lfemur -14.743608293357308 -3.006519199779655 -22.06458694778405
ltibia 21.610016093130923
lfoot -2.6870163960407765 -3.5114800311537513
ltoes -10.17300814036061
rfemur -6.1046962269148874 3.72298612362785 22.53486057725993
rtibia 64.30072077563837
rfoot 2.205137957958936 -7.957050961021413
rtoes 6.986884817474289
lowerback 9.692583739102984 2.8163434397176506 0.6739832572973817
upperback 0.47246969142757733 3.854312937270917 0.2016995722761008
thorax -4.827200207829071 1.9212182714299395 -1.0699014274231589
lowerneck -16.01577242217059 -2.79692956313861 -1.8711005867769763
upperneck 20.47221864860677 -3.6002655015550906 1.0607913462913992
head 9.178002198397316 -1.7169437013456221 0.07848508102816965
lclavicle -1.956214996322818e-15 9.049736521610197e-16
lhumerus -34.06042871406999 1.2672477891425409 81.54268050713117
lradius 32.857437724990724
lwrist 7.76280012161118
lhand -27.24274156461675 22.767858491096394
lfingers 7.12502
lthumb -0.6314169931780781 52.57255471175516
rclavicle -1.953864403887316e-15 9.061959535225353e-16
rhumerus -28.71043189056709 -16.350597693808837 -79.39316714111763
rradius 23.837372301462516
rwrist 4.613936714783929
rhand -17.56429884836543 22.041350808652048
rfingers 7.12502
rthumb 8.802267945099286 -7.831786910130367
93
root 0.321646399508538 17.876054598298065 41.11977434161484 -3.9898878667343567 -6.7687670971378875 -0.26781484838073344
lfemur -11.686862867191813 -3.1070389585851856 -22.69015365058623
ltibia 20.996928211317403
lfoot -4.0102236069614765 -2.5389677898617053
ltoes -10.691052422872952
rfemur -11.386904008238165 2.437403632489697 22.18844816644503
rtibia 69.7697268396243
rfoot 0.2201201489871103 -8.881266246300541
rtoes 5.6000826370250465
lowerback 10.10190033291093 2.3985257016915553 0.26929361798876206
upperback 0.5703543000447542 3.2970244714079073 0.29050879573308563
thorax -4.961497524093855 1.6564113774643827 -0.5940119505373976
lowerneck -15.981631026369355 -2.7234516423271193 -2.0161189066806333
upperneck 20.49702156647854 -3.472295739921864 1.0940684197713535
head 9.196984541048558 -1.6634117330603384 0.11973442260898295
lclavicle -1.9568117872153202e-15 9.040394872286335e-16
lhumerus -33.340096685568206 0.896198569822341 81.83548093414726
lradius 33.04507056785126
lwrist 7.682190794517765
lhand -27.20045071310833 22.929106804903977
lfingers 7.12502
lthumb -0.5816533120370478 52.72438414435704
rclavicle -1.953821218374802e-15 9.06235670772209e-16
rhumerus -28.874821849506507 -16.237564501825627 -79.29011932909988
rradius 23.790192943650048
rwrist 4.378369150947719
rhand -17.489283959172752 21.915622295993682
rfingers 7.12502
rthumb 8.924160054859192 -7.871595688154435
94
root 0.3303176521609289 17.872757198520237 41.659161459077716 -4.13184933615408 -5.956907941699187 -0.3255888376765481
lfemur -8.97212832409175 -3.201211356829046 -23.100292197653275
ltibia 20.6832209021477
lfoot -5.17356987263362 -2.112382427645052
ltoes -10.55438315183035
rfemur -15.500335200812193 1.344660959009445 22.41528130798962
rtibia 71.20485192880452
rfoot -1.9285442858359536 -8.42713152962611
rtoes 4.969341642692894
lowerback 10.280610882263641 1.8830619223087064 0.22081897365758296
upperback 0.7015767983385744 2.6063578010446475 0.5049760829970207
thorax -5.003639488159982 1.3146956592443575 -0.093198314205439
lowerneck -15.963151968808965 -2.6782091702448634 -2.2220864818770605
upperneck 20.503594727130487 -3.3876309066385395 1.173734036917835
head 9.207959375116454 -1.6267240206193285 0.1810534967418556
lclavicle -1.9559973214915194e-15 9.046127313381304e-16
lhumerus -33.014021732879556 0.1315176871610404 81.96896713190479
lradius 33.494596167938965
lwrist 7.454357413999083
lhand -27.091735802695023 23.117256883709384
lfingers 7.12502
lthumb -0.45959464427930163 52.94370453073951
rclavicle -1.954349344979007e-15 9.057496077796412e-16
rhumerus -29.059970899065423 -16.247306458929888 -79.2491580858961
rradius 23.81823218049912
rwrist 4.245385795444055
rhand -17.442660875753766 21.96747641475188
rfingers 7.12502
rthumb 9.012323673311274 -7.737297433700764
